<?xml version="1.0" encoding="UTF-8" standalone="no"?>
<!DOCTYPE svg PUBLIC "-//W3C//DTD SVG 1.1//EN"
"http://www.w3.org/Graphics/SVG/1.1/DTD/svg11.dtd">
<svg viewBox="0 0 825 1191" version="1.1" xmlns="http://www.w3.org/2000/svg" xmlns:xlink="http://www.w3.org/1999/xlink">
<defs>
<clipPath id="c0_1"><path d="M85.1,733.5V523.2H400.2V733.5Z"/></clipPath>
<clipPath id="c1_1"><path d="M455.2,679.4L440.1,604.5L709.6,550.3l15.1,74.8L455.2,679.4Z"/></clipPath>
<clipPath id="c2_1"><path d="M66.4,240c.1,-54.1,.3,-111.6,.1,-158.5c0,-27.9,.3,-41,28.2,-41H734.2c28,0,26.7,9.2,26.7,37.1c0,39.7,.5,91.3,.5,140.3v5.6c0,5.6,0,11.1,0,16.5Z"/></clipPath>
<clipPath id="c3_1"><path d="M707.3,239.2V209.5h31.2v29.7Z"/></clipPath>
<clipPath id="c4_1"><path d="M447.1,275V254.8h48.4V275Z"/></clipPath>
<clipPath id="c5_1"><path d="M452.7,319.9v-37h37.2v37Z"/></clipPath>
<clipPath id="c6_1"><path d="M159.8,241.1c-31,0,-56,-25.1,-56,-56c0,-31,25,-56,56,-56c30.9,0,56,25,56,56c0,30.9,-25.1,56,-56,56Z"/></clipPath>
<clipPath id="c7_1"><path d="M0,36.7V0H825V36.7Z"/></clipPath>
<style type="text/css"><![CDATA[
.g0_1{
fill: #E7E6E6;
}
.g1_1{
fill: #FFFFFF;
}
.g2_1{
fill: none;
stroke: #D0CECE;
stroke-width: 0.381;
stroke-linecap: butt;
stroke-linejoin: miter;
stroke-miterlimit: 8;
}
.g3_1{
fill: #F1F1F1;
}
.g4_1{
fill: #DDDBD7;
}
.g5_1{
fill: #4472C4;
}
.g6_1{
fill: none;
stroke: #0070C0;
stroke-width: 1.527;
stroke-linecap: butt;
stroke-linejoin: miter;
stroke-miterlimit: 8;
}
.g7_1{
fill: none;
stroke: #A6A6A6;
stroke-width: 1.527;
stroke-linecap: butt;
stroke-linejoin: miter;
stroke-miterlimit: 8;
}
.g8_1{
fill: none;
stroke: #FFFFFF;
stroke-width: 1.527;
stroke-linecap: butt;
stroke-linejoin: miter;
stroke-miterlimit: 8;
}
.g9_1{
fill: #FF0000;
}
]]></style>
</defs>
<path d="M0,1191.7H825V0H0V1191.7Z" class="g0_1"/>
<path fill-rule="evenodd" d="M65.2,478.9c0,-33.6,.4,-49.3,28.3,-49.3H732.8c27.9,0,26.6,11.1,26.6,44.7c0,81.3,1.4,204,-.5,282.9c0,33.7,-7.8,42.5,-35.7,42.5L97.5,795.1c-27.9,0,-32.3,2.7,-32.3,-30.9c-.3,-85.5,.3,-199.8,0,-285.3Z" class="g1_1"/>
<path d="M65.2,478.9c0,-33.6,.4,-49.3,28.3,-49.3H732.8c27.9,0,26.6,11.1,26.6,44.7c0,81.3,1.4,204,-.5,282.9c0,33.7,-7.8,42.5,-35.7,42.5L97.5,795.1c-27.9,0,-32.3,2.7,-32.3,-30.9c-.3,-85.5,.3,-199.8,0,-285.3Z" class="g2_1"/>
<path fill-rule="evenodd" d="M65.2,854.4c0,-34.6,.4,-50.9,28.3,-50.9H732.8c27.9,0,26.6,11.5,26.6,46.2c0,83.6,1.4,210,-.5,291.3c0,34.6,-7.8,43.7,-35.7,43.7L97.5,1179.9c-27.9,0,-32.3,2.8,-32.3,-31.8c-.3,-88,.3,-205.7,0,-293.7Z" class="g1_1"/>
<path d="M65.2,854.4c0,-34.6,.4,-50.9,28.3,-50.9H732.8c27.9,0,26.6,11.5,26.6,46.2c0,83.6,1.4,210,-.5,291.3c0,34.6,-7.8,43.7,-35.7,43.7L97.5,1179.9c-27.9,0,-32.3,2.8,-32.3,-31.8c-.3,-88,.3,-205.7,0,-293.7Z" class="g2_1"/>
<path fill-rule="evenodd" d="M73.2,525c0,-27.4,.2,-40.3,13.5,-40.3H392.9c13.4,0,12.8,9.1,12.8,36.6c0,66.3,.6,166.5,-.3,230.9c0,27.5,-3.7,34.7,-17.1,34.7L88.7,783.1c-13.4,0,-15.5,2.2,-15.5,-25.3c-.2,-69.7,.1,-163,0,-232.8Z" class="g1_1"/>
<path d="M73.2,525c0,-27.4,.2,-40.3,13.5,-40.3H392.9c13.4,0,12.8,9.1,12.8,36.6c0,66.3,.6,166.5,-.3,230.9c0,27.5,-3.7,34.7,-17.1,34.7L88.7,783.1c-13.4,0,-15.5,2.2,-15.5,-25.3c-.2,-69.7,.1,-163,0,-232.8Z" class="g2_1"/>
<image clip-path="url(#c0_1)" preserveAspectRatio="none" x="85" y="523" width="315" height="211" xlink:href="img/1.jpg"/>
<path fill-rule="evenodd" d="M72.4,679.1H405v50.5h-.1l.1,4.4c0,14.7,0,29.2,-.5,40.6c0,9.7,-3.7,12.3,-17.1,12.3L87.9,785.5c-13.3,0,-15.4,.8,-15.4,-8.9c-.1,-12.3,-.1,-26.7,0,-41.1v-5.9h-.1Z" class="g3_1"/>
<path fill-rule="evenodd" d="M415.8,526.2c0,-27.6,.2,-40.6,13.6,-40.6H735.6c13.3,0,12.7,9.2,12.7,36.8c0,66.8,.7,167.7,-.2,232.5c0,27.7,-3.8,34.9,-17.1,34.9L431.3,786c-13.3,0,-15.5,2.2,-15.5,-25.4c-.1,-70.2,.2,-164.1,0,-234.4Z" class="g1_1"/>
<path d="M415.8,526.2c0,-27.6,.2,-40.6,13.6,-40.6H735.6c13.3,0,12.7,9.2,12.7,36.8c0,66.8,.7,167.7,-.2,232.5c0,27.7,-3.8,34.9,-17.1,34.9L431.3,786c-13.3,0,-15.5,2.2,-15.5,-25.4c-.1,-70.2,.2,-164.1,0,-234.4Z" class="g2_1"/>
<path fill-rule="evenodd" d="M429,525.2H741.2V704.4H429V525.2Z" class="g4_1"/>
<image clip-path="url(#c1_1)" preserveAspectRatio="none" x="440" y="550" width="285" height="129" xlink:href="img/2.png"/>
<path fill-rule="evenodd" d="M415.1,680.7H747.8v55c.1,14.6,0,29.2,-.5,40.6c0,9.7,-3.7,12.2,-17.1,12.2L430.6,787.2c-13.4,0,-15.5,.8,-15.5,-8.9c-.1,-12.4,0,-26.8,0,-41.2v-5.8Z" class="g3_1"/>
<image clip-path="url(#c2_1)" preserveAspectRatio="none" x="66" y="-29" width="695" height="269" xlink:href="img/3.jpg"/>
<path fill-rule="evenodd" d="M64.2,199.1h697V305.7h-.1l.1,9.3c.1,30.9,0,61.6,-1,85.6c0,20.5,-7.8,25.8,-35.8,25.8L96.7,423.6c-28,0,-32.4,1.7,-32.4,-18.8c-.2,-26,-.1,-56.4,0,-86.8V305.7h-.1Z" class="g1_1"/>
<image clip-path="url(#c3_1)" preserveAspectRatio="none" x="707" y="210" width="32" height="29" xlink:href="img/4.jpg"/>
<image clip-path="url(#c4_1)" preserveAspectRatio="none" x="447" y="255" width="49" height="20" xlink:href="img/5.png"/>
<path fill-rule="evenodd" d="M94.4,382.1h49.5c8.3,0,15.1,6.1,15.1,13.7c0,7.6,-6.8,13.8,-15.1,13.8H94.4c-8.3,0,-15,-6.2,-15,-13.8c0,-7.6,6.7,-13.7,15,-13.7Z" class="g5_1"/>
<path d="M94.4,382.1h49.5c8.3,0,15.1,6.1,15.1,13.7c0,7.6,-6.8,13.8,-15.1,13.8H94.4c-8.3,0,-15,-6.2,-15,-13.8c0,-7.6,6.7,-13.7,15,-13.7Z" class="g6_1"/>
<path fill-rule="evenodd" d="M184.4,382.1h49.4c8.3,0,15,6.1,15,13.7c0,7.6,-6.7,13.8,-15,13.8H184.4c-8.3,0,-15,-6.2,-15,-13.8c0,-7.6,6.7,-13.7,15,-13.7Z" class="g1_1"/>
<path d="M184.4,382.1h49.4c8.3,0,15,6.1,15,13.7c0,7.6,-6.7,13.8,-15,13.8H184.4c-8.3,0,-15,-6.2,-15,-13.8c0,-7.6,6.7,-13.7,15,-13.7Z" class="g7_1"/>
<image clip-path="url(#c5_1)" preserveAspectRatio="none" x="453" y="283" width="37" height="37" xlink:href="img/6.jpg"/>
<image clip-path="url(#c6_1)" preserveAspectRatio="none" x="65" y="127" width="197" height="171" xlink:href="img/7.png"/>
<path d="M103.8,185.1c0,-31,25,-56,56,-56c30.9,0,56,25,56,56c0,30.9,-25.1,56,-56,56c-31,0,-56,-25.1,-56,-56Z" class="g8_1"/>
<path fill-rule="evenodd" d="M190.5,236c0,-6.1,4.9,-11.1,11,-11.1c6.1,0,11,5,11,11.1c0,6,-4.9,11,-11,11c-6.1,0,-11,-5,-11,-11Z" class="g9_1"/>
<path d="M190.5,236c0,-6.1,4.9,-11.1,11,-11.1c6.1,0,11,5,11,11.1c0,6,-4.9,11,-11,11c-6.1,0,-11,-5,-11,-11Z" class="g8_1"/>
<image clip-path="url(#c7_1)" preserveAspectRatio="none" x="0" y="0" width="825" height="37" xlink:href="img/8.png"/>
<path fill-rule="evenodd" d="M664,18c0,-5.9,4.8,-10.7,10.6,-10.7c5.8,0,10.5,4.8,10.5,10.7c0,5.8,-4.7,10.6,-10.5,10.6C668.8,28.6,664,23.8,664,18Z" class="g1_1"/>
</svg>