<?xml version="1.0" encoding="UTF-8" standalone="no"?>
<!DOCTYPE svg PUBLIC "-//W3C//DTD SVG 1.1//EN"
"http://www.w3.org/Graphics/SVG/1.1/DTD/svg11.dtd">
<svg viewBox="0 0 825 1191" version="1.1" xmlns="http://www.w3.org/2000/svg" xmlns:xlink="http://www.w3.org/1999/xlink">
<defs>
<clipPath id="c0"><path d="M80.5,185.7V158.9h55.3v26.8Z"/></clipPath>
<clipPath id="c1"><path d="M92.4,439.3V402.2H128v37.1Z"/></clipPath>
<clipPath id="c2"><path d="M103.9,313.7c-4.4,0,-8,-3.6,-8,-8V273.8c0,-4.4,3.6,-8,8,-8h35.5c4.4,0,8,3.6,8,8v31.9c0,4.4,-3.6,8,-8,8Z"/></clipPath>
<clipPath id="c3"><path d="M89.1,852.7V803.9h47.7v48.8Z"/></clipPath>
<clipPath id="c4"><path d="M86.2,1125.9v-60.7H320.3v60.7Z"/></clipPath>
<clipPath id="c5"><path d="M0,36.7V0H825V36.7Z"/></clipPath>
<style type="text/css"><![CDATA[
.g0{
fill: #E7E6E6;
}
.g1{
fill: #FFFFFF;
}
.g2{
fill: none;
stroke: #D0CECE;
stroke-width: 0.381;
stroke-linecap: butt;
stroke-linejoin: miter;
stroke-miterlimit: 8;
}
.g3{
fill: none;
stroke: #D0CECE;
stroke-width: 0.763;
stroke-linecap: butt;
stroke-linejoin: miter;
stroke-miterlimit: 8;
}
.g4{
fill: #AFABAB;
}
.g5{
fill: none;
stroke: #AFABAB;
stroke-width: 1.527;
stroke-linecap: butt;
stroke-linejoin: miter;
stroke-miterlimit: 8;
}
.g6{
fill: none;
stroke: #E7E6E6;
stroke-width: 2.291;
stroke-linecap: butt;
stroke-linejoin: miter;
stroke-miterlimit: 8;
}
]]></style>
</defs>
<path d="M0,1191.7H825V0H0V1191.7Z" class="g0"/>
<path fill-rule="evenodd" d="M65.2,82.6c0,-25.9,.4,-38.1,28.3,-38.1H732.8c27.9,0,26.6,8.6,26.6,34.6c0,62.6,1.4,157.3,-.5,218.1c0,26,-7.8,32.8,-35.7,32.8L97.5,326.4c-27.9,0,-32.3,2.1,-32.3,-23.8c-.3,-65.9,.3,-154.1,0,-220Z" class="g1"/>
<path d="M65.2,82.6c0,-25.9,.4,-38.1,28.3,-38.1H732.8c27.9,0,26.6,8.6,26.6,34.6c0,62.6,1.4,157.3,-.5,218.1c0,26,-7.8,32.8,-35.7,32.8L97.5,326.4c-27.9,0,-32.3,2.1,-32.3,-23.8c-.3,-65.9,.3,-154.1,0,-220Z" class="g2"/>
<path d="M80.5,185.9H723.1" class="g3"/>
<image clip-path="url(#c0)" preserveAspectRatio="none" x="80" y="159" width="56" height="27" xlink:href="img/1.jpg"/>
<path fill-rule="evenodd" d="M66.3,379.6c0,-27.7,.4,-40.6,28.3,-40.6H734.1c27.9,0,26.6,9.1,26.6,36.8c0,66.9,1.4,168,-.5,232.9c0,27.7,-7.8,35,-35.7,35L98.6,639.9c-27.9,0,-32.3,2.2,-32.3,-25.5C66,544.1,66.6,450,66.3,379.6Z" class="g1"/>
<path d="M66.3,379.6c0,-27.7,.4,-40.6,28.3,-40.6H734.1c27.9,0,26.6,9.1,26.6,36.8c0,66.9,1.4,168,-.5,232.9c0,27.7,-7.8,35,-35.7,35L98.6,639.9c-27.9,0,-32.3,2.2,-32.3,-25.5C66,544.1,66.6,450,66.3,379.6Z" class="g2"/>
<image clip-path="url(#c1)" preserveAspectRatio="none" x="92" y="402" width="36" height="37" xlink:href="img/2.png"/>
<path fill-rule="evenodd" d="M99.2,472.3c0,2.3,1.9,4.2,4.2,4.2c2.3,0,4.2,-1.9,4.2,-4.2c0,-2.4,-1.9,-4.3,-4.2,-4.3c-2.3,0,-4.2,1.9,-4.2,4.3Z" class="g4"/>
<path d="M99.2,472.3c0,2.3,1.9,4.2,4.2,4.2c2.3,0,4.2,-1.9,4.2,-4.2c0,-2.4,-1.9,-4.3,-4.2,-4.3c-2.3,0,-4.2,1.9,-4.2,4.3Z" class="g5"/>
<path d="M103.5,546.9V488.5" class="g6"/>
<path fill-rule="evenodd" d="M99.2,562.6c0,2.3,1.9,4.3,4.2,4.3c2.3,0,4.2,-2,4.2,-4.3c0,-2.4,-1.9,-4.4,-4.2,-4.4c-2.3,0,-4.2,2,-4.2,4.4Z" class="g4"/>
<path d="M99.2,562.6c0,2.3,1.9,4.3,4.2,4.3c2.3,0,4.2,-2,4.2,-4.3c0,-2.4,-1.9,-4.4,-4.2,-4.4c-2.3,0,-4.2,2,-4.2,4.4Z" class="g5"/>
<image clip-path="url(#c2)" preserveAspectRatio="none" x="96" y="266" width="51" height="48" xlink:href="img/3.jpg"/>
<path fill-rule="evenodd" d="M69.9,682.5c0,-20.8,.4,-30.6,28.3,-30.6H737.6c27.9,0,26.6,6.9,26.6,27.7c0,50.3,1.4,126.2,-.5,175c0,20.9,-7.8,26.3,-35.7,26.3L102.3,878.1c-27.9,0,-32.4,1.6,-32.4,-19.2c-.3,-52.8,.4,-123.5,0,-176.4Z" class="g1"/>
<path d="M69.9,682.5c0,-20.8,.4,-30.6,28.3,-30.6H737.6c27.9,0,26.6,6.9,26.6,27.7c0,50.3,1.4,126.2,-.5,175c0,20.9,-7.8,26.3,-35.7,26.3L102.3,878.1c-27.9,0,-32.4,1.6,-32.4,-19.2c-.3,-52.8,.4,-123.5,0,-176.4Z" class="g2"/>
<image preserveAspectRatio="none" x="95" y="733" width="35" height="35" xlink:href="img/4.jpg"/>
<image clip-path="url(#c3)" preserveAspectRatio="none" x="89" y="804" width="48" height="49" xlink:href="img/5.jpg"/>
<path d="M91.8,793.7H734.4" class="g3"/>
<path fill-rule="evenodd" d="M66.3,1036.5c0,-11.8,.4,-17.3,28.3,-17.3H734.1c27.9,0,26.6,3.9,26.6,15.7c0,28.4,1.4,71.5,-.5,99.2c0,11.8,-7.8,14.9,-35.7,14.9L98.6,1147.3c-27.9,0,-32.3,1,-32.3,-10.8c-.3,-30,.3,-70.1,0,-100Z" class="g1"/>
<path d="M66.3,1036.5c0,-11.8,.4,-17.3,28.3,-17.3H734.1c27.9,0,26.6,3.9,26.6,15.7c0,28.4,1.4,71.5,-.5,99.2c0,11.8,-7.8,14.9,-35.7,14.9L98.6,1147.3c-27.9,0,-32.3,1,-32.3,-10.8c-.3,-30,.3,-70.1,0,-100Z" class="g2"/>
<image clip-path="url(#c4)" preserveAspectRatio="none" x="86" y="1065" width="234" height="61" xlink:href="img/6.jpg"/>
<path fill-rule="evenodd" d="M70.5,906.1c0,-10.8,.4,-15.8,28.3,-15.8H738.3c27.9,0,26.6,3.5,26.6,14.3c0,26,1.4,65.4,-.5,90.7c0,10.8,-7.8,13.6,-35.7,13.6l-625.8,-1.5c-28,0,-32.4,.9,-32.4,-9.9c-.3,-27.4,.3,-64,0,-91.4Z" class="g1"/>
<path d="M70.5,906.1c0,-10.8,.4,-15.8,28.3,-15.8H738.3c27.9,0,26.6,3.5,26.6,14.3c0,26,1.4,65.4,-.5,90.7c0,10.8,-7.8,13.6,-35.7,13.6l-625.8,-1.5c-28,0,-32.4,.9,-32.4,-9.9c-.3,-27.4,.3,-64,0,-91.4Z" class="g2"/>
<image clip-path="url(#c5)" preserveAspectRatio="none" x="0" y="0" width="825" height="37" xlink:href="img/7.png"/>
<path fill-rule="evenodd" d="M664,18c0,-5.9,4.8,-10.7,10.6,-10.7c5.8,0,10.5,4.8,10.5,10.7c0,5.8,-4.7,10.6,-10.5,10.6C668.8,28.6,664,23.8,664,18Z" class="g1"/>
</svg>