<?xml version="1.0" encoding="UTF-8" standalone="no"?>
<!DOCTYPE svg PUBLIC "-//W3C//DTD SVG 1.1//EN"
"http://www.w3.org/Graphics/SVG/1.1/DTD/svg11.dtd">
<svg viewBox="0 0 825 1191" version="1.1" xmlns="http://www.w3.org/2000/svg" xmlns:xlink="http://www.w3.org/1999/xlink">
<defs>
<clipPath id="c0"><path d="M79.2,182.6V155.8h55.4v26.8Z"/></clipPath>
<clipPath id="c1"><path d="M92.4,433.8V396.7H128v37.1Z"/></clipPath>
<clipPath id="c2"><path d="M102.8,310.6c-4.4,0,-8,-3.6,-8,-8V270.7c0,-4.4,3.6,-8,8,-8h35.5c4.4,0,8,3.6,8,8v31.9c0,4.4,-3.6,8,-8,8Z"/></clipPath>
<clipPath id="c3"><path d="M92.2,1158.8V1098H326.3v60.8Z"/></clipPath>
<clipPath id="c4"><path d="M86.2,505.1V456.3H134v48.8Z"/></clipPath>
<clipPath id="c5"><path d="M84.7,591.6V542.9h47.8v48.7Z"/></clipPath>
<clipPath id="c6"><path d="M0,36.7V0H825V36.7Z"/></clipPath>
<style type="text/css"><![CDATA[
.g0{
fill: #E7E6E6;
}
.g1{
fill: #FFFFFF;
}
.g2{
fill: none;
stroke: #D0CECE;
stroke-width: 0.381;
stroke-linecap: butt;
stroke-linejoin: miter;
stroke-miterlimit: 8;
}
.g3{
fill: none;
stroke: #D0CECE;
stroke-width: 0.763;
stroke-linecap: butt;
stroke-linejoin: miter;
stroke-miterlimit: 8;
}
]]></style>
</defs>
<path d="M0,1191.7H825V0H0V1191.7Z" class="g0"/>
<path fill-rule="evenodd" d="M63.9,79.5c0,-25.9,.4,-38.1,28.3,-38.1H731.7c27.9,0,26.6,8.6,26.6,34.6c0,62.7,1.4,157.4,-.5,218.3c0,26,-7.8,32.8,-35.7,32.8L96.3,323.5c-28,0,-32.4,2.1,-32.4,-23.9c-.3,-65.9,.3,-154.1,0,-220.1Z" class="g1"/>
<path d="M63.9,79.5c0,-25.9,.4,-38.1,28.3,-38.1H731.7c27.9,0,26.6,8.6,26.6,34.6c0,62.7,1.4,157.4,-.5,218.3c0,26,-7.8,32.8,-35.7,32.8L96.3,323.5c-28,0,-32.4,2.1,-32.4,-23.9c-.3,-65.9,.3,-154.1,0,-220.1Z" class="g2"/>
<path d="M79.2,182.8H721.8" class="g3"/>
<image clip-path="url(#c0)" preserveAspectRatio="none" x="79" y="156" width="56" height="27" xlink:href="img/1.jpg"/>
<path fill-rule="evenodd" d="M66.3,376.1c0,-29.1,.4,-42.8,28.3,-42.8H734.1c27.9,0,26.6,9.7,26.6,38.8c0,70.5,1.4,176.9,-.5,245.4c0,29.2,-7.8,36.8,-35.7,36.8l-625.9,-4c-27.9,0,-32.3,2.4,-32.3,-26.8c-.3,-74.1,.3,-173.3,0,-247.4Z" class="g1"/>
<path d="M66.3,376.1c0,-29.1,.4,-42.8,28.3,-42.8H734.1c27.9,0,26.6,9.7,26.6,38.8c0,70.5,1.4,176.9,-.5,245.4c0,29.2,-7.8,36.8,-35.7,36.8l-625.9,-4c-27.9,0,-32.3,2.4,-32.3,-26.8c-.3,-74.1,.3,-173.3,0,-247.4Z" class="g2"/>
<image clip-path="url(#c1)" preserveAspectRatio="none" x="92" y="397" width="36" height="37" xlink:href="img/2.png"/>
<image clip-path="url(#c2)" preserveAspectRatio="none" x="95" y="263" width="51" height="48" xlink:href="img/3.jpg"/>
<path fill-rule="evenodd" d="M66.3,686.2c0,-14.5,.4,-21.2,28.3,-21.2H734.1c27.9,0,26.6,4.7,26.6,19.2c0,34.9,1.4,87.6,-.5,121.5c0,14.4,-7.8,18.2,-35.7,18.2l-625.9,-2c-27.9,0,-32.3,1.2,-32.3,-13.3c-.3,-36.7,.3,-85.7,0,-122.4Z" class="g1"/>
<path d="M66.3,686.2c0,-14.5,.4,-21.2,28.3,-21.2H734.1c27.9,0,26.6,4.7,26.6,19.2c0,34.9,1.4,87.6,-.5,121.5c0,14.4,-7.8,18.2,-35.7,18.2l-625.9,-2c-27.9,0,-32.3,1.2,-32.3,-13.3c-.3,-36.7,.3,-85.7,0,-122.4Z" class="g2"/>
<path fill-rule="evenodd" d="M72.3,860.6c0,-18.4,.4,-27,28.3,-27H740.1c27.9,0,26.6,6.1,26.6,24.5c0,44.5,1.5,111.7,-.4,154.9c0,18.4,-7.8,23.2,-35.7,23.2l-625.9,-2.5c-27.9,0,-32.4,1.5,-32.4,-17C72,970,72.6,907.4,72.3,860.6Z" class="g1"/>
<path d="M72.3,860.6c0,-18.4,.4,-27,28.3,-27H740.1c27.9,0,26.6,6.1,26.6,24.5c0,44.5,1.5,111.7,-.4,154.9c0,18.4,-7.8,23.2,-35.8,23.2l-625.8,-2.5c-27.9,0,-32.4,1.5,-32.4,-17C72,970,72.6,907.4,72.3,860.6Z" class="g2"/>
<path fill-rule="evenodd" d="M72.3,1069.2c0,-11.8,.4,-17.2,28.3,-17.2H740.1c27.9,0,26.6,3.8,26.6,15.6c0,28.2,1.5,71,-.4,98.5c0,11.7,-7.8,14.8,-35.7,14.8l-625.9,-1.7c-27.9,0,-32.4,1,-32.4,-10.7c-.3,-29.8,.3,-69.6,0,-99.3Z" class="g1"/>
<path d="M72.3,1069.2c0,-11.8,.4,-17.2,28.3,-17.2H740.1c27.9,0,26.6,3.8,26.6,15.6c0,28.2,1.5,71,-.4,98.5c0,11.7,-7.8,14.8,-35.8,14.8l-625.8,-1.7c-27.9,0,-32.4,1,-32.4,-10.7c-.3,-29.8,.3,-69.6,0,-99.3Z" class="g2"/>
<image clip-path="url(#c3)" preserveAspectRatio="none" x="92" y="1098" width="234" height="61" xlink:href="img/4.jpg"/>
<image preserveAspectRatio="none" x="89" y="739" width="37" height="37" xlink:href="img/5.jpg"/>
<image clip-path="url(#c4)" preserveAspectRatio="none" x="86" y="456" width="48" height="49" xlink:href="img/6.jpg"/>
<image clip-path="url(#c5)" preserveAspectRatio="none" x="85" y="543" width="48" height="49" xlink:href="img/7.jpg"/>
<image clip-path="url(#c6)" preserveAspectRatio="none" x="0" y="0" width="825" height="37" xlink:href="img/8.png"/>
<path fill-rule="evenodd" d="M664,18c0,-5.9,4.8,-10.7,10.6,-10.7c5.8,0,10.5,4.8,10.5,10.7c0,5.8,-4.7,10.6,-10.5,10.6C668.8,28.6,664,23.8,664,18Z" class="g1"/>
</svg>