<?xml version="1.0" encoding="UTF-8" standalone="no"?>
<!DOCTYPE svg PUBLIC "-//W3C//DTD SVG 1.1//EN"
"http://www.w3.org/Graphics/SVG/1.1/DTD/svg11.dtd">
<svg viewBox="0 0 825 1191" version="1.1" xmlns="http://www.w3.org/2000/svg" xmlns:xlink="http://www.w3.org/1999/xlink">
<defs>
<clipPath id="c0_1"><path d="M64.9,247.2C65,193.1,65.2,135.6,65,88.6C65,60.7,65.4,47.7,93.3,47.7H732.8c27.9,0,26.6,9.2,26.6,37.1c0,45.6,.7,107.1,.5,162.4Z"/></clipPath>
<clipPath id="c1_1"><path d="M705.8,246.4V216.9H737v29.5Z"/></clipPath>
<clipPath id="c2_1"><path d="M445.7,282.1V262.2h48.4v19.9Z"/></clipPath>
<clipPath id="c3_1"><path d="M84,809.6V546.3H399.8V809.6Z"/></clipPath>
<clipPath id="c4_1"><path d="M451.4,340.2V303H486v37.2Z"/></clipPath>
<clipPath id="c5_1"><path d="M155,252.1C124.1,252.1,99,227,99,196.2c0,-30.9,25.1,-56,56,-56c30.9,0,56,25.1,56,56c0,30.8,-25.1,55.9,-56,55.9Z"/></clipPath>
<clipPath id="c6_1"><path d="M0,36.7V0H825V36.7Z"/></clipPath>
<style type="text/css"><![CDATA[
.g0_1{
fill: #E7E6E6;
}
.g1_1{
fill: #FFFFFF;
}
.g2_1{
fill: #4472C4;
}
.g3_1{
fill: none;
stroke: #0070C0;
stroke-width: 1.527;
stroke-linecap: butt;
stroke-linejoin: miter;
stroke-miterlimit: 8;
}
.g4_1{
fill: none;
stroke: #A6A6A6;
stroke-width: 1.527;
stroke-linecap: butt;
stroke-linejoin: miter;
stroke-miterlimit: 8;
}
.g5_1{
fill: none;
stroke: #D0CECE;
stroke-width: 0.381;
stroke-linecap: butt;
stroke-linejoin: miter;
stroke-miterlimit: 8;
}
.g6_1{
fill: #F1F1F1;
}
.g7_1{
fill: none;
stroke: #FFFFFF;
stroke-width: 1.527;
stroke-linecap: butt;
stroke-linejoin: miter;
stroke-miterlimit: 8;
}
.g8_1{
fill: #FF0000;
}
]]></style>
</defs>
<path d="M0,1191.7H825V0H0V1191.7Z" class="g0_1"/>
<image clip-path="url(#c0_1)" preserveAspectRatio="none" x="65" y="-22" width="695" height="269" xlink:href="img/1.jpg"/>
<path fill-rule="evenodd" d="M62.7,206.3H759.9V319.6h-.1l.1,10c.1,32.8,0,65.4,-1,91c0,21.8,-7.8,27.5,-35.8,27.5l-627.8,-3c-28,0,-32.5,1.7,-32.5,-20c-.2,-27.7,-.1,-60,0,-92.3V319.6h-.1Z" class="g1_1"/>
<image clip-path="url(#c1_1)" preserveAspectRatio="none" x="706" y="217" width="31" height="29" xlink:href="img/2.jpg"/>
<image clip-path="url(#c2_1)" preserveAspectRatio="none" x="446" y="262" width="48" height="20" xlink:href="img/3.png"/>
<path fill-rule="evenodd" d="M93.9,403.5h49.4c8.4,0,15.1,6.2,15.1,13.8c0,7.6,-6.7,13.7,-15.1,13.7H93.9c-8.3,0,-15.1,-6.1,-15.1,-13.7c0,-7.6,6.8,-13.8,15.1,-13.8Z" class="g2_1"/>
<path d="M93.9,403.5h49.4c8.4,0,15.1,6.2,15.1,13.8c0,7.6,-6.7,13.7,-15.1,13.7H93.9c-8.3,0,-15.1,-6.1,-15.1,-13.7c0,-7.6,6.8,-13.8,15.1,-13.8Z" class="g3_1"/>
<path fill-rule="evenodd" d="M183.9,403.5h49.3c8.3,0,15,6.2,15,13.8c0,7.6,-6.7,13.7,-15,13.7H183.9c-8.3,0,-15.1,-6.1,-15.1,-13.7c0,-7.6,6.8,-13.8,15.1,-13.8Z" class="g1_1"/>
<path d="M183.9,403.5h49.3c8.3,0,15,6.2,15,13.8c0,7.6,-6.7,13.7,-15,13.7H183.9c-8.3,0,-15.1,-6.1,-15.1,-13.7c0,-7.6,6.8,-13.8,15.1,-13.8Z" class="g4_1"/>
<path fill-rule="evenodd" d="M62.8,909.1c0,-21.5,.4,-31.5,28.3,-31.5H730.6c27.9,0,26.6,7.1,26.6,28.5c0,51.7,1.4,129.8,-.5,180.1c0,21.4,-7.8,27,-35.7,27L95.2,1110.3c-28,0,-32.4,1.7,-32.4,-19.7c-.3,-54.4,.3,-127.2,0,-181.5Z" class="g1_1"/>
<path d="M62.8,909.1c0,-21.5,.4,-31.5,28.3,-31.5H730.6c27.9,0,26.6,7.1,26.6,28.5c0,51.7,1.4,129.8,-.5,180.1c0,21.4,-7.8,27,-35.7,27L95.2,1110.3c-28,0,-32.4,1.7,-32.4,-19.7c-.3,-54.4,.3,-127.2,0,-181.5Z" class="g5_1"/>
<path fill-rule="evenodd" d="M62.8,514.4c0,-37,.4,-54.2,28.3,-54.2H730.6c27.9,0,26.6,12.2,26.6,49.1c0,89.1,1.4,223.8,-.5,310.4c0,36.9,-7.8,46.6,-35.7,46.6L95.2,861.2c-28,0,-32.4,3,-32.4,-34c-.3,-93.7,.3,-219.1,0,-312.8Z" class="g1_1"/>
<path d="M62.8,514.4c0,-37,.4,-54.2,28.3,-54.2H730.6c27.9,0,26.6,12.2,26.6,49.1c0,89.1,1.4,223.8,-.5,310.4c0,36.9,-7.8,46.6,-35.7,46.6L95.2,861.2c-28,0,-32.4,3,-32.4,-34c-.3,-93.7,.3,-219.1,0,-312.8Z" class="g5_1"/>
<path fill-rule="evenodd" d="M75.6,558.7c0,-30.8,.2,-45.2,13.5,-45.2H395.3c13.4,0,12.7,10.2,12.7,41c0,74.4,.7,186.8,-.2,259.1c0,30.8,-3.7,38.9,-17.1,38.9L91.1,848.3c-13.4,0,-15.5,2.5,-15.5,-28.4c-.2,-78.2,.1,-182.9,0,-261.2Z" class="g1_1"/>
<path d="M75.6,558.7c0,-30.8,.2,-45.2,13.5,-45.2H395.3c13.4,0,12.7,10.2,12.7,41c0,74.4,.7,186.8,-.2,259.1c0,30.8,-3.7,38.9,-17.1,38.9L91.1,848.3c-13.4,0,-15.5,2.5,-15.5,-28.4c-.2,-78.2,.1,-182.9,0,-261.2Z" class="g5_1"/>
<image clip-path="url(#c3_1)" preserveAspectRatio="none" x="84" y="546" width="316" height="264" xlink:href="img/4.jpg"/>
<path fill-rule="evenodd" d="M75.4,707.1H408.1v74.3c0,19.7,0,39.4,-.5,54.7c0,13.1,-3.7,16.6,-17.1,16.6L90.9,850.9c-13.4,0,-15.5,1,-15.5,-12.1c-.1,-16.6,0,-36.1,0,-55.5v-7.9Z" class="g6_1"/>
<image clip-path="url(#c4_1)" preserveAspectRatio="none" x="451" y="303" width="35" height="37" xlink:href="img/5.jpg"/>
<image clip-path="url(#c5_1)" preserveAspectRatio="none" x="51" y="140" width="249" height="169" xlink:href="img/6.jpg"/>
<path d="M99,196.2c0,-30.9,25.1,-55.9,56,-55.9c30.9,0,56,25,56,55.9c0,30.8,-25.1,55.9,-56,55.9C124.1,252.1,99,227,99,196.2Z" class="g7_1"/>
<path fill-rule="evenodd" d="M189,243.3c0,-6.1,4.9,-11,11,-11c6.1,0,11,4.9,11,11c0,6.1,-4.9,11,-11,11c-6.1,0,-11,-4.9,-11,-11Z" class="g8_1"/>
<path d="M189,243.3c0,-6.1,4.9,-11,11,-11c6.1,0,11,4.9,11,11c0,6.1,-4.9,11,-11,11c-6.1,0,-11,-4.9,-11,-11Z" class="g7_1"/>
<image clip-path="url(#c6_1)" preserveAspectRatio="none" x="0" y="0" width="825" height="37" xlink:href="img/7.png"/>
<path fill-rule="evenodd" d="M664,18c0,-5.9,4.8,-10.7,10.6,-10.7c5.8,0,10.5,4.8,10.5,10.7c0,5.8,-4.7,10.6,-10.5,10.6C668.8,28.6,664,23.8,664,18Z" class="g1_1"/>
</svg>