<?xml version="1.0" encoding="UTF-8" standalone="no"?>
<!DOCTYPE svg PUBLIC "-//W3C//DTD SVG 1.1//EN"
"http://www.w3.org/Graphics/SVG/1.1/DTD/svg11.dtd">
<svg viewBox="0 0 825 1191" version="1.1" xmlns="http://www.w3.org/2000/svg" xmlns:xlink="http://www.w3.org/1999/xlink">
<defs>
<clipPath id="c0_1"><path d="M64.9,247.2C65,193.1,65.2,135.6,65,88.6C65,60.7,65.4,47.7,93.3,47.7H732.8c27.9,0,26.6,9.2,26.6,37.1c0,45.6,.7,107.1,.5,162.4Z"/></clipPath>
<clipPath id="c1_1"><path d="M155,252.1C124.1,252.1,99,227,99,196.2c0,-27.1,19.2,-49.6,44.8,-54.8h22.4c25.6,5.2,44.8,27.7,44.8,54.8c0,30.8,-25.1,55.9,-56,55.9Z"/></clipPath>
<clipPath id="c2_1"><path d="M705.8,246.4V216.9H737v29.5Z"/></clipPath>
<clipPath id="c3_1"><path d="M442.7,338.2V289.8H491v48.4Z"/></clipPath>
<clipPath id="c4_1"><path d="M0,36.7V0H825V36.7Z"/></clipPath>
<clipPath id="c5_1"><path d="M442.7,282.1V262.2H491v19.9Z"/></clipPath>
<clipPath id="c6_1"><path d="M78.8,691.2V520.7h322V691.2Z"/></clipPath>
<style type="text/css"><![CDATA[
.g0_1{
fill: #E7E6E6;
}
.g1_1{
fill: #FFFFFF;
}
.g2_1{
fill: none;
stroke: #D0CECE;
stroke-width: 0.381;
stroke-linecap: butt;
stroke-linejoin: miter;
stroke-miterlimit: 8;
}
.g3_1{
fill: none;
stroke: #FFFFFF;
stroke-width: 1.527;
stroke-linecap: butt;
stroke-linejoin: miter;
stroke-miterlimit: 8;
}
.g4_1{
fill: #FF0000;
}
.g5_1{
fill: #4472C4;
}
.g6_1{
fill: none;
stroke: #0070C0;
stroke-width: 1.527;
stroke-linecap: butt;
stroke-linejoin: miter;
stroke-miterlimit: 8;
}
.g7_1{
fill: none;
stroke: #A6A6A6;
stroke-width: 1.527;
stroke-linecap: butt;
stroke-linejoin: miter;
stroke-miterlimit: 8;
}
.g8_1{
fill: #DDDBD7;
}
.g9_1{
fill: #F1F1F1;
}
]]></style>
</defs>
<path d="M0,1191.7H825V0H0V1191.7Z" class="g0_1"/>
<path fill-rule="evenodd" d="M60.4,482.6c0,-34,.4,-49.9,28.3,-49.9H728c27.9,0,26.6,11.2,26.6,45.3c0,82.1,1.5,206.3,-.4,286.1c0,34,-7.8,42.9,-35.7,42.9L92.8,802.4c-27.9,0,-32.4,2.7,-32.4,-31.3c-.3,-86.5,.3,-202,0,-288.5Z" class="g1_1"/>
<path d="M60.4,482.6c0,-34,.4,-49.9,28.3,-49.9H728c27.9,0,26.6,11.2,26.6,45.3c0,82.1,1.5,206.3,-.4,286.1c0,34,-7.8,42.9,-35.7,42.9L92.8,802.4c-27.9,0,-32.4,2.7,-32.4,-31.3c-.3,-86.5,.3,-202,0,-288.5Z" class="g2_1"/>
<path fill-rule="evenodd" d="M73,526.4C73,498.9,73.2,486,86.6,486H392.7c13.4,0,12.8,9.1,12.8,36.6c0,66.3,.7,166.6,-.3,231c0,27.5,-3.7,34.7,-17.1,34.7L88.5,784.6C75.1,784.6,73,786.8,73,759.3c-.1,-69.8,.2,-163.1,0,-232.9Z" class="g1_1"/>
<path d="M73,526.4C73,498.9,73.2,486,86.6,486H392.7c13.4,0,12.8,9.1,12.8,36.6c0,66.3,.7,166.6,-.3,231c0,27.5,-3.7,34.7,-17.1,34.7L88.5,784.6C75.1,784.6,73,786.8,73,759.3c-.1,-69.8,.2,-163.1,0,-232.9Z" class="g2_1"/>
<image clip-path="url(#c0_1)" preserveAspectRatio="none" x="65" y="-22" width="695" height="269" xlink:href="img/1.jpg"/>
<path fill-rule="evenodd" d="M62.7,206.3H759.9V309.5h-.1l.1,9.1c.1,29.8,0,59.5,-1,82.8c0,19.8,-7.8,25,-35.8,25L95.3,423.7c-28,0,-32.5,1.6,-32.5,-18.2c-.2,-25.2,-.1,-54.6,0,-84.1V309.5h-.1Z" class="g1_1"/>
<image clip-path="url(#c1_1)" preserveAspectRatio="none" x="43" y="141" width="189" height="113" xlink:href="img/2.jpg"/>
<path d="M99,196.2c0,-30.9,25.1,-55.9,56,-55.9c30.9,0,56,25,56,55.9c0,30.8,-25.1,55.9,-56,55.9C124.1,252.1,99,227,99,196.2Z" class="g3_1"/>
<path fill-rule="evenodd" d="M189,243.3c0,-6.1,4.9,-11,11,-11c6.1,0,11,4.9,11,11c0,6.1,-4.9,11,-11,11c-6.1,0,-11,-4.9,-11,-11Z" class="g4_1"/>
<path d="M189,243.3c0,-6.1,4.9,-11,11,-11c6.1,0,11,4.9,11,11c0,6.1,-4.9,11,-11,11c-6.1,0,-11,-4.9,-11,-11Z" class="g3_1"/>
<image clip-path="url(#c2_1)" preserveAspectRatio="none" x="706" y="217" width="31" height="29" xlink:href="img/3.jpg"/>
<path fill-rule="evenodd" d="M95.1,382.6h49.4c8.3,0,15,6.2,15,13.8c0,7.6,-6.7,13.7,-15,13.7H95.1c-8.3,0,-15,-6.1,-15,-13.7c0,-7.6,6.7,-13.8,15,-13.8Z" class="g5_1"/>
<path d="M95.1,382.6h49.4c8.3,0,15,6.2,15,13.8c0,7.6,-6.7,13.7,-15,13.7H95.1c-8.3,0,-15,-6.1,-15,-13.7c0,-7.6,6.7,-13.8,15,-13.8Z" class="g6_1"/>
<path fill-rule="evenodd" d="M185,382.6h49.3c8.3,0,15,6.2,15,13.8c0,7.6,-6.7,13.7,-15,13.7H185c-8.3,0,-15.1,-6.1,-15.1,-13.7c0,-7.6,6.8,-13.8,15.1,-13.8Z" class="g1_1"/>
<path d="M185,382.6h49.3c8.3,0,15,6.2,15,13.8c0,7.6,-6.7,13.7,-15,13.7H185c-8.3,0,-15.1,-6.1,-15.1,-13.7c0,-7.6,6.8,-13.8,15.1,-13.8Z" class="g7_1"/>
<path fill-rule="evenodd" d="M62.2,860.1c0,-34,.4,-49.9,28.2,-49.9H727.9c27.8,0,26.6,11.2,26.6,45.2c0,82.1,1.4,206.2,-.5,286c0,34,-7.8,42.9,-35.6,42.9L94.5,1179.7c-27.8,0,-32.3,2.7,-32.3,-31.3c-.3,-86.4,.4,-201.9,0,-288.3Z" class="g1_1"/>
<path d="M62.2,860.1c0,-34,.4,-49.9,28.2,-49.9H727.9c27.8,0,26.6,11.2,26.6,45.2c0,82.1,1.4,206.2,-.5,286c0,34,-7.8,42.9,-35.6,42.9L94.5,1179.7c-27.8,0,-32.3,2.7,-32.3,-31.3c-.3,-86.4,.4,-201.9,0,-288.3Z" class="g2_1"/>
<image clip-path="url(#c3_1)" preserveAspectRatio="none" x="443" y="290" width="48" height="48" xlink:href="img/4.jpg"/>
<path fill-rule="evenodd" d="M415.8,528c0,-27.9,.2,-40.9,13.6,-40.9h306c13.3,0,12.7,9.2,12.7,37.1c0,67.1,.7,168.7,-.2,234c0,27.8,-3.7,35.1,-17.1,35.1L431.3,789.5c-13.3,0,-15.5,2.2,-15.5,-25.6c-.1,-70.7,.2,-165.2,0,-235.9Z" class="g1_1"/>
<path d="M415.8,528c0,-27.9,.2,-40.9,13.6,-40.9h306c13.3,0,12.7,9.2,12.7,37.1c0,67.1,.7,168.7,-.2,234c0,27.8,-3.7,35.1,-17.1,35.1L431.3,789.5c-13.3,0,-15.5,2.2,-15.5,-25.6c-.1,-70.7,.2,-165.2,0,-235.9Z" class="g2_1"/>
<path fill-rule="evenodd" d="M429,526.7H741.2V705.8H429V526.7Z" class="g8_1"/>
<path fill-rule="evenodd" d="M414.9,682.2H747.6v56.6c.1,15.1,0,30.1,-.4,41.9c0,10,-3.8,12.6,-17.1,12.6L430.4,791.9c-13.3,0,-15.5,.8,-15.5,-9.2c0,-12.7,0,-27.5,0,-42.4v-6Z" class="g9_1"/>
<image clip-path="url(#c4_1)" preserveAspectRatio="none" x="0" y="0" width="825" height="37" xlink:href="img/5.png"/>
<path fill-rule="evenodd" d="M664,18c0,-5.9,4.8,-10.7,10.6,-10.7c5.8,0,10.5,4.8,10.5,10.7c0,5.8,-4.7,10.6,-10.5,10.6C668.8,28.6,664,23.8,664,18Z" class="g1_1"/>
<image clip-path="url(#c5_1)" preserveAspectRatio="none" x="443" y="262" width="48" height="20" xlink:href="img/6.png"/>
<image clip-path="url(#c6_1)" preserveAspectRatio="none" x="79" y="521" width="322" height="170" xlink:href="img/7.jpg"/>
<path fill-rule="evenodd" d="M72.2,680.5H405v50.6h-.1l.1,4.4c0,14.6,0,29.2,-.5,40.6c0,9.7,-3.7,12.2,-17.1,12.2L87.8,787c-13.4,0,-15.5,.8,-15.5,-8.9c-.1,-12.4,-.1,-26.8,0,-41.2v-5.8h-.1Z" class="g9_1"/>
</svg>