<?xml version="1.0" encoding="UTF-8" standalone="no"?>
<!DOCTYPE svg PUBLIC "-//W3C//DTD SVG 1.1//EN"
"http://www.w3.org/Graphics/SVG/1.1/DTD/svg11.dtd">
<svg viewBox="0 0 825 1191" version="1.1" xmlns="http://www.w3.org/2000/svg" xmlns:xlink="http://www.w3.org/1999/xlink">
<defs>
<clipPath id="c0_1"><path d="M64.9,247.2C65,193.1,65.2,135.6,65,88.6C65,60.7,65.4,47.7,93.3,47.7H732.8c27.9,0,26.6,9.2,26.6,37.1c0,45.6,.7,107.1,.5,162.4Z"/></clipPath>
<clipPath id="c1_1"><path d="M705.8,246.4V216.9H737v29.5Z"/></clipPath>
<clipPath id="c2_1"><path d="M445.7,282.1V262.2h48.4v19.9Z"/></clipPath>
<clipPath id="c3_1"><path d="M0,36.7V0H825V36.7Z"/></clipPath>
<clipPath id="c4_1"><path d="M91.1,710.2V544.3h295V710.2Z"/></clipPath>
<style type="text/css"><![CDATA[
.g0_1{
fill: #E7E6E6;
}
.g1_1{
fill: #FFFFFF;
}
.g2_1{
fill: none;
stroke: #D0CECE;
stroke-width: 0.381;
stroke-linecap: butt;
stroke-linejoin: miter;
stroke-miterlimit: 8;
}
.g3_1{
fill: #FF0000;
}
.g4_1{
fill: none;
stroke: #FFFFFF;
stroke-width: 1.527;
stroke-linecap: butt;
stroke-linejoin: miter;
stroke-miterlimit: 8;
}
.g5_1{
fill: #4472C4;
}
.g6_1{
fill: none;
stroke: #0070C0;
stroke-width: 1.527;
stroke-linecap: butt;
stroke-linejoin: miter;
stroke-miterlimit: 8;
}
.g7_1{
fill: none;
stroke: #A6A6A6;
stroke-width: 1.527;
stroke-linecap: butt;
stroke-linejoin: miter;
stroke-miterlimit: 8;
}
.g8_1{
fill: #DDDBD7;
}
.g9_1{
fill: #F1F1F1;
}
]]></style>
</defs>
<path d="M0,1191.7H825V0H0V1191.7Z" class="g0_1"/>
<path fill-rule="evenodd" d="M58.8,507.9c0,-34,.3,-49.9,28.2,-49.9H726.5c28,0,26.7,11.2,26.7,45.3c0,82.1,1.4,206.3,-.5,286.1c0,34,-7.8,42.9,-35.7,42.9L91.1,827.7c-27.9,0,-32.3,2.7,-32.3,-31.3c-.4,-86.5,.3,-202,0,-288.5Z" class="g1_1"/>
<path d="M58.8,507.9c0,-34,.3,-49.9,28.2,-49.9H726.5c28,0,26.7,11.2,26.7,45.3c0,82.1,1.4,206.3,-.5,286.1c0,34,-7.8,42.9,-35.7,42.9L91.1,827.7c-27.9,0,-32.3,2.7,-32.3,-31.3c-.4,-86.5,.3,-202,0,-288.5Z" class="g2_1"/>
<path fill-rule="evenodd" d="M71.5,551.7c0,-27.5,.2,-40.4,13.6,-40.4H391.3c13.3,0,12.7,9.1,12.7,36.6c0,66.3,.7,166.6,-.2,231c0,27.5,-3.8,34.7,-17.1,34.7L87,809.9c-13.3,0,-15.5,2.2,-15.5,-25.3c-.1,-69.8,.2,-163.1,0,-232.9Z" class="g1_1"/>
<path d="M71.5,551.7c0,-27.5,.2,-40.4,13.6,-40.4H391.3c13.3,0,12.7,9.1,12.7,36.6c0,66.3,.7,166.6,-.2,231c0,27.5,-3.8,34.7,-17.1,34.7L87,809.9c-13.3,0,-15.5,2.2,-15.5,-25.3c-.1,-69.8,.2,-163.1,0,-232.9Z" class="g2_1"/>
<image clip-path="url(#c0_1)" preserveAspectRatio="none" x="65" y="-22" width="695" height="269" xlink:href="img/1.jpg"/>
<path fill-rule="evenodd" d="M62.7,206.3H759.9V319.6h-.1l.1,9.9c.1,32.8,0,65.4,-1,90.9c0,21.8,-7.8,27.5,-35.8,27.5l-627.8,-3c-28,0,-32.5,1.8,-32.5,-20c-.2,-27.6,-.1,-59.9,0,-92.2V319.6h-.1Z" class="g1_1"/>
<path fill-rule="evenodd" d="M189,243.3c0,-6.1,4.9,-11,11,-11c6.1,0,11,4.9,11,11c0,6.1,-4.9,11,-11,11c-6.1,0,-11,-4.9,-11,-11Z" class="g3_1"/>
<path d="M189,243.3c0,-6.1,4.9,-11,11,-11c6.1,0,11,4.9,11,11c0,6.1,-4.9,11,-11,11c-6.1,0,-11,-4.9,-11,-11Z" class="g4_1"/>
<image clip-path="url(#c1_1)" preserveAspectRatio="none" x="706" y="217" width="31" height="29" xlink:href="img/2.jpg"/>
<image clip-path="url(#c2_1)" preserveAspectRatio="none" x="446" y="262" width="48" height="20" xlink:href="img/3.png"/>
<path fill-rule="evenodd" d="M98.6,403.5H148c8.3,0,15,6.2,15,13.8c0,7.6,-6.7,13.7,-15,13.7H98.6c-8.3,0,-15,-6.1,-15,-13.7c0,-7.6,6.7,-13.8,15,-13.8Z" class="g5_1"/>
<path d="M98.6,403.5H148c8.3,0,15,6.2,15,13.8c0,7.6,-6.7,13.7,-15,13.7H98.6c-8.3,0,-15,-6.1,-15,-13.7c0,-7.6,6.7,-13.8,15,-13.8Z" class="g6_1"/>
<path fill-rule="evenodd" d="M188.5,403.5h49.3c8.3,0,15,6.2,15,13.8c0,7.6,-6.7,13.7,-15,13.7H188.5c-8.3,0,-15.1,-6.1,-15.1,-13.7c0,-7.6,6.8,-13.8,15.1,-13.8Z" class="g1_1"/>
<path d="M188.5,403.5h49.3c8.3,0,15,6.2,15,13.8c0,7.6,-6.7,13.7,-15,13.7H188.5c-8.3,0,-15.1,-6.1,-15.1,-13.7c0,-7.6,6.8,-13.8,15.1,-13.8Z" class="g7_1"/>
<path fill-rule="evenodd" d="M60.6,883.1C60.6,853.8,61,840,88.8,840H726.4c27.9,0,26.6,9.7,26.6,39.1c0,70.8,1.4,177.8,-.5,246.6c0,29.3,-7.8,37,-35.6,37l-624,-4c-27.9,0,-32.3,2.3,-32.3,-27c-.3,-74.5,.3,-174.1,0,-248.6Z" class="g1_1"/>
<path d="M60.6,883.1C60.6,853.8,61,840,88.8,840H726.4c27.9,0,26.6,9.7,26.6,39.1c0,70.8,1.4,177.8,-.5,246.6c0,29.3,-7.8,37,-35.6,37l-624,-4c-27.9,0,-32.3,2.3,-32.3,-27c-.3,-74.5,.3,-174.1,0,-248.6Z" class="g2_1"/>
<path fill-rule="evenodd" d="M414.4,553.3c0,-27.9,.2,-40.9,13.5,-40.9h306c13.4,0,12.8,9.2,12.8,37.1c0,67.1,.6,168.7,-.3,234c0,27.8,-3.7,35.1,-17.1,35.1L429.9,814.8c-13.4,0,-15.5,2.2,-15.5,-25.6c-.2,-70.7,.1,-165.2,0,-235.9Z" class="g1_1"/>
<path d="M414.4,553.3c0,-27.9,.2,-40.9,13.5,-40.9h306c13.4,0,12.8,9.2,12.8,37.1c0,67.1,.6,168.7,-.3,234c0,27.8,-3.7,35.1,-17.1,35.1L429.9,814.8c-13.4,0,-15.5,2.2,-15.5,-25.6c-.2,-70.7,.1,-165.2,0,-235.9Z" class="g2_1"/>
<path fill-rule="evenodd" d="M427.4,552H739.8V731.1H427.4V552Z" class="g8_1"/>
<path fill-rule="evenodd" d="M413.4,707.5H746.2v52.1h-.1v4.5c.1,15.1,0,30.1,-.4,41.9c0,10,-3.7,12.6,-17.1,12.6L429,817.2c-13.4,0,-15.5,.8,-15.5,-9.2c-.1,-12.7,-.1,-27.5,0,-42.4v-6h-.1Z" class="g9_1"/>
<image clip-path="url(#c3_1)" preserveAspectRatio="none" x="0" y="0" width="825" height="37" xlink:href="img/4.png"/>
<path fill-rule="evenodd" d="M664,18c0,-5.9,4.8,-10.7,10.6,-10.7c5.8,0,10.5,4.8,10.5,10.7c0,5.8,-4.7,10.6,-10.5,10.6C668.8,28.6,664,23.8,664,18Z" class="g1_1"/>
<image preserveAspectRatio="none" x="101" y="140" width="110" height="111" xlink:href="img/5.png"/>
<image clip-path="url(#c4_1)" preserveAspectRatio="none" x="91" y="544" width="295" height="166" xlink:href="img/6.jpg"/>
<path fill-rule="evenodd" d="M70.8,705.8H403.3v55c.1,14.6,0,29.2,-.4,40.6c0,9.7,-3.8,12.2,-17.1,12.2L86.3,812.3c-13.4,0,-15.5,.8,-15.5,-8.9c-.1,-12.4,0,-26.8,0,-41.2v-5.8Z" class="g9_1"/>
<image preserveAspectRatio="none" x="447" y="294" width="37" height="37" xlink:href="img/7.jpg"/>
</svg>