<?xml version="1.0" encoding="UTF-8" standalone="no"?>
<!DOCTYPE svg PUBLIC "-//W3C//DTD SVG 1.1//EN"
"http://www.w3.org/Graphics/SVG/1.1/DTD/svg11.dtd">
<svg viewBox="0 0 825 1191" version="1.1" xmlns="http://www.w3.org/2000/svg" xmlns:xlink="http://www.w3.org/1999/xlink">
<defs>
<clipPath id="c0_1"><path d="M723.2,229.2L97.4,226.9c-3.9,0,-7.3,0,-10.4,0c-18.7,0,-22,-1,-22,-15.2c-.3,-41.9,.3,-97.9,0,-139.8C65,55.4,65.4,47.7,93.3,47.7H732.8c27.9,0,26.6,5.4,26.6,21.9c0,39.9,1.4,100,-.5,138.7c0,16.5,-7.8,20.9,-35.7,20.9Z"/></clipPath>
<clipPath id="c1_1"><path d="M705.8,246.4V216.9H737v29.5Z"/></clipPath>
<clipPath id="c2_1"><path d="M445.7,282.1V262.2h48.4v19.9Z"/></clipPath>
<clipPath id="c3_1"><path d="M73.3,768V527.1H406.1V768Z"/></clipPath>
<clipPath id="c4_1"><path d="M0,36.7V0H825V36.7Z"/></clipPath>
<clipPath id="c5_1"><path d="M101.2,250.2v-112h112v112Z"/></clipPath>
<style type="text/css"><![CDATA[
.g0_1{
fill: #E7E6E6;
}
.g1_1{
fill: #FFFFFF;
}
.g2_1{
fill: #FF0000;
}
.g3_1{
fill: none;
stroke: #FFFFFF;
stroke-width: 1.527;
stroke-linecap: butt;
stroke-linejoin: miter;
stroke-miterlimit: 8;
}
.g4_1{
fill: #4472C4;
}
.g5_1{
fill: none;
stroke: #0070C0;
stroke-width: 1.527;
stroke-linecap: butt;
stroke-linejoin: miter;
stroke-miterlimit: 8;
}
.g6_1{
fill: none;
stroke: #A6A6A6;
stroke-width: 1.527;
stroke-linecap: butt;
stroke-linejoin: miter;
stroke-miterlimit: 8;
}
.g7_1{
fill: none;
stroke: #D0CECE;
stroke-width: 0.381;
stroke-linecap: butt;
stroke-linejoin: miter;
stroke-miterlimit: 8;
}
.g8_1{
fill: #F1F1F1;
}
]]></style>
</defs>
<path d="M0,1191.7H825V0H0V1191.7Z" class="g0_1"/>
<image clip-path="url(#c0_1)" preserveAspectRatio="none" x="65" y="48" width="695" height="181" xlink:href="img/1.jpg"/>
<path fill-rule="evenodd" d="M62.7,206.3H759.9V309.7h-.1l.1,9c.1,30,0,59.7,-1,83c0,19.9,-7.8,25.1,-35.8,25.1L95.3,424.1c-28,0,-32.5,1.6,-32.5,-18.3c-.2,-25.2,-.1,-54.7,0,-84.2V309.7h-.1Z" class="g1_1"/>
<path fill-rule="evenodd" d="M189,243.3c0,-6.1,4.9,-11,11,-11c6.1,0,11,4.9,11,11c0,6.1,-4.9,11,-11,11c-6.1,0,-11,-4.9,-11,-11Z" class="g2_1"/>
<path d="M189,243.3c0,-6.1,4.9,-11,11,-11c6.1,0,11,4.9,11,11c0,6.1,-4.9,11,-11,11c-6.1,0,-11,-4.9,-11,-11Z" class="g3_1"/>
<image clip-path="url(#c1_1)" preserveAspectRatio="none" x="706" y="217" width="31" height="29" xlink:href="img/2.jpg"/>
<image clip-path="url(#c2_1)" preserveAspectRatio="none" x="446" y="262" width="48" height="20" xlink:href="img/3.png"/>
<path fill-rule="evenodd" d="M91,381.7h49.4c8.3,0,15.1,6.2,15.1,13.8c0,7.5,-6.8,13.7,-15.1,13.7H91c-8.4,0,-15.1,-6.2,-15.1,-13.7c0,-7.6,6.7,-13.8,15.1,-13.8Z" class="g4_1"/>
<path d="M91,381.7h49.4c8.3,0,15.1,6.2,15.1,13.8c0,7.5,-6.8,13.7,-15.1,13.7H91c-8.4,0,-15.1,-6.2,-15.1,-13.7c0,-7.6,6.7,-13.8,15.1,-13.8Z" class="g5_1"/>
<path fill-rule="evenodd" d="M180.9,381.7h49.4c8.3,0,15,6.2,15,13.8c0,7.5,-6.7,13.7,-15,13.7H180.9c-8.3,0,-15,-6.2,-15,-13.7c0,-7.6,6.7,-13.8,15,-13.8Z" class="g1_1"/>
<path d="M180.9,381.7h49.4c8.3,0,15,6.2,15,13.8c0,7.5,-6.7,13.7,-15,13.7H180.9c-8.3,0,-15,-6.2,-15,-13.7c0,-7.6,6.7,-13.8,15,-13.8Z" class="g6_1"/>
<path fill-rule="evenodd" d="M60.6,870.2c0,-32.9,.4,-48.3,28.3,-48.3H728.4c27.9,0,26.6,10.9,26.6,43.8c0,79.6,1.4,199.8,-.5,277c0,33,-7.8,41.6,-35.7,41.6L93,1179.8c-28,0,-32.4,2.7,-32.4,-30.3c-.3,-83.7,.3,-195.6,0,-279.3Z" class="g1_1"/>
<path d="M60.6,870.2c0,-32.9,.4,-48.3,28.3,-48.3H728.4c27.9,0,26.6,10.9,26.6,43.8c0,79.6,1.4,199.8,-.5,277c0,33,-7.8,41.6,-35.7,41.6L93,1179.8c-28,0,-32.4,2.7,-32.4,-30.3c-.3,-83.7,.3,-195.6,0,-279.3Z" class="g7_1"/>
<path fill-rule="evenodd" d="M60.6,486.7c0,-35.2,.4,-51.6,28.3,-51.6H728.4c27.9,0,26.6,11.6,26.6,46.8c0,85,1.4,213.4,-.5,295.9c0,35.2,-7.8,44.5,-35.7,44.5L93,817.4c-28,0,-32.4,2.9,-32.4,-32.3c-.3,-89.4,.3,-209,0,-298.4Z" class="g1_1"/>
<path d="M60.6,486.7c0,-35.2,.4,-51.6,28.3,-51.6H728.4c27.9,0,26.6,11.6,26.6,46.8c0,85,1.4,213.4,-.5,295.9c0,35.2,-7.8,44.5,-35.7,44.5L93,817.4c-28,0,-32.4,2.9,-32.4,-32.3c-.3,-89.4,.3,-209,0,-298.4Z" class="g7_1"/>
<path fill-rule="evenodd" d="M73.4,531.2c0,-29.2,.2,-42.8,13.5,-42.8H393.1c13.4,0,12.7,9.6,12.7,38.8c0,70.4,.7,176.7,-.2,245.1c0,29.1,-3.7,36.7,-17.1,36.7L88.9,805.1c-13.4,0,-15.5,2.3,-15.5,-26.8c-.2,-74.1,.1,-173.1,0,-247.1Z" class="g1_1"/>
<path d="M73.4,531.2c0,-29.2,.2,-42.8,13.5,-42.8H393.1c13.4,0,12.7,9.6,12.7,38.8c0,70.4,.7,176.7,-.2,245.1c0,29.1,-3.7,36.7,-17.1,36.7L88.9,805.1c-13.4,0,-15.5,2.3,-15.5,-26.8c-.2,-74.1,.1,-173.1,0,-247.1Z" class="g7_1"/>
<image clip-path="url(#c3_1)" preserveAspectRatio="none" x="73" y="527" width="333" height="241" xlink:href="img/4.jpg"/>
<path fill-rule="evenodd" d="M73.3,682H406.1v59.6H406l.1,5.2c0,17.2,0,34.4,-.5,47.8c0,11.4,-3.7,14.5,-17.1,14.5L88.9,807.5c-13.4,0,-15.5,.9,-15.5,-10.5c-.1,-14.6,-.1,-31.6,0,-48.5v-6.9h-.1Z" class="g8_1"/>
<image clip-path="url(#c4_1)" preserveAspectRatio="none" x="0" y="0" width="825" height="37" xlink:href="img/5.png"/>
<path fill-rule="evenodd" d="M664,18c0,-5.9,4.8,-10.7,10.6,-10.7c5.8,0,10.5,4.8,10.5,10.7c0,5.8,-4.7,10.6,-10.5,10.6C668.8,28.6,664,23.8,664,18Z" class="g1_1"/>
<image clip-path="url(#c5_1)" preserveAspectRatio="none" x="101" y="138" width="112" height="112" xlink:href="img/6.png"/>
<image preserveAspectRatio="none" x="446" y="294" width="48" height="48" xlink:href="img/7.jpg"/>
</svg>